STARTFONT 2.1
COMMENT
COMMENT Converted from OpenType font "8-BITWONDER.TTF" by "otf2bdf 3.0".
COMMENT
FONT -FreeType-8BIT WONDER-Medium-R-Normal--17-120-100-100-P-141-ISO10646-1
SIZE 12 100 100
FONTBOUNDINGBOX 23 17 -1 0
STARTPROPERTIES 19
FOUNDRY "FreeType"
FAMILY_NAME "8BIT WONDER"
WEIGHT_NAME "Medium"
SLANT "R"
SETWIDTH_NAME "Normal"
ADD_STYLE_NAME ""
PIXEL_SIZE 17
POINT_SIZE 120
RESOLUTION_X 100
RESOLUTION_Y 100
SPACING "P"
AVERAGE_WIDTH 141
CHARSET_REGISTRY "ISO10646"
CHARSET_ENCODING "1"
FONT_ASCENT 17
FONT_DESCENT 0
COPYRIGHT "©2001 Joiro Hatgaya | Freeware, but look at readme file. | JOIRO@HOTMAIL.COM"
_OTF_FONTFILE "8-BITWONDER.TTF"
_OTF_PSNAME "8BITWONDERNominal"
ENDPROPERTIES
CHARS 69
STARTCHAR 0020
ENCODING 32
SWIDTH 480 0
DWIDTH 8 0
BBX 0 0 0 0
BITMAP
ENDCHAR
STARTCHAR 0023
ENCODING 35
SWIDTH 1020 0
DWIDTH 17 0
BBX 17 17 0 0
BITMAP
FFFF80
FFFF80
FFFF80
E00380
E00380
E00380
E00380
E00380
E00380
E00380
E00380
E00380
E00380
E00380
FFFF80
FFFF80
FFFF80
ENDCHAR
STARTCHAR 0028
ENCODING 40
SWIDTH 480 0
DWIDTH 8 0
BBX 8 14 0 0
BITMAP
7F
7F
FF
FC
FC
FC
FC
FC
FC
FC
FC
FF
FF
7F
ENDCHAR
STARTCHAR 0029
ENCODING 41
SWIDTH 480 0
DWIDTH 8 0
BBX 8 14 0 0
BITMAP
FE
FF
FF
1F
1F
1F
1F
1F
1F
1F
1F
FF
FF
FE
ENDCHAR
STARTCHAR 002A
ENCODING 42
SWIDTH 1020 0
DWIDTH 17 0
BBX 14 14 0 0
BITMAP
4008
E01C
4008
1860
1CE0
1840
0300
0300
0840
1CE0
18E0
4008
E01C
4008
ENDCHAR
STARTCHAR 0030
ENCODING 48
SWIDTH 1020 0
DWIDTH 17 0
BBX 14 14 0 0
BITMAP
7FF8
7FFC
FFFC
FCFC
FCFC
FCFC
FFFC
FFFC
FFFC
FCFC
FCFC
FFFC
FFFC
7FF8
ENDCHAR
STARTCHAR 0031
ENCODING 49
SWIDTH 480 0
DWIDTH 8 0
BBX 7 14 -1 0
BITMAP
F8
FE
FE
7E
7E
7E
7E
7E
7E
7E
7E
7E
7E
7E
ENDCHAR
STARTCHAR 0032
ENCODING 50
SWIDTH 1020 0
DWIDTH 17 0
BBX 14 14 0 0
BITMAP
FFF8
FFFC
FFFC
00FC
00FC
00FC
7FFC
FFF8
FFF8
FC00
FC00
FFFC
FFFC
FFFC
ENDCHAR
STARTCHAR 0033
ENCODING 51
SWIDTH 1020 0
DWIDTH 17 0
BBX 14 14 0 0
BITMAP
FFF8
FFF8
FFFC
00FC
00FC
00FC
0FF8
0FF8
0FF8
00FC
00FC
FFFC
FFFC
FFF8
ENDCHAR
STARTCHAR 0034
ENCODING 52
SWIDTH 1020 0
DWIDTH 17 0
BBX 14 14 0 0
BITMAP
FCFC
FCFC
FCFC
FCFC
FCFC
FCFC
FFFC
7FFC
7FFC
00FC
00FC
00FC
00FC
00FC
ENDCHAR
STARTCHAR 0035
ENCODING 53
SWIDTH 1020 0
DWIDTH 17 0
BBX 14 14 0 0
BITMAP
FFFC
FFFC
FFFC
FC00
FC00
FC00
FFF8
7FFC
7FFC
00FC
00FC
FFFC
FFFC
FFF8
ENDCHAR
STARTCHAR 0036
ENCODING 54
SWIDTH 1020 0
DWIDTH 17 0
BBX 14 14 0 0
BITMAP
7FFC
7FFC
FFFC
FC00
FC00
FFF8
FFF8
FFFC
FCFC
FCFC
FCFC
FFFC
FFFC
7FF8
ENDCHAR
STARTCHAR 0037
ENCODING 55
SWIDTH 1020 0
DWIDTH 17 0
BBX 14 14 0 0
BITMAP
FFF8
FFFC
FFFC
00FC
00FC
00FC
00FC
00FC
00FC
00FC
00FC
00FC
00FC
00FC
ENDCHAR
STARTCHAR 0038
ENCODING 56
SWIDTH 1020 0
DWIDTH 17 0
BBX 14 14 0 0
BITMAP
7FF8
7FF8
FFFC
FCFC
FCFC
FCFC
7FF8
7FF8
7FF8
FCFC
FCFC
FFFC
FFFC
7FF8
ENDCHAR
STARTCHAR 0039
ENCODING 57
SWIDTH 1020 0
DWIDTH 17 0
BBX 14 14 0 0
BITMAP
7FF8
7FFC
FFFC
FCFC
FCFC
FCFC
FFFC
7FFC
7FFC
00FC
00FC
FFFC
FFFC
FFF8
ENDCHAR
STARTCHAR 0041
ENCODING 65
SWIDTH 1020 0
DWIDTH 17 0
BBX 14 14 0 0
BITMAP
7FF8
7FFC
FFFC
FCFC
FCFC
FCFC
FFFC
FFFC
FFFC
FCFC
FCFC
FCFC
FCFC
FCFC
ENDCHAR
STARTCHAR 0042
ENCODING 66
SWIDTH 1020 0
DWIDTH 17 0
BBX 14 14 0 0
BITMAP
FFF8
FFF8
FFFC
FCFC
FCFC
FCFC
FFF8
FFF8
FFF8
FCFC
FCFC
FFFC
FFFC
FFF8
ENDCHAR
STARTCHAR 0043
ENCODING 67
SWIDTH 1020 0
DWIDTH 17 0
BBX 14 14 0 0
BITMAP
7FFC
7FFC
FFFC
FC00
FC00
FC00
FC00
FC00
FC00
FC00
FC00
FFFC
FFFC
7FFC
ENDCHAR
STARTCHAR 0044
ENCODING 68
SWIDTH 1020 0
DWIDTH 17 0
BBX 14 14 0 0
BITMAP
FFF8
FFFC
FFFC
FCFC
FCFC
FCFC
FCFC
FCFC
FCFC
FCFC
FCFC
FFFC
FFFC
FFF8
ENDCHAR
STARTCHAR 0045
ENCODING 69
SWIDTH 1020 0
DWIDTH 17 0
BBX 14 14 0 0
BITMAP
7FFC
7FFC
FFFC
FC00
FC00
FC00
FFC0
FFC0
FFC0
FC00
FC00
FFFC
FFFC
7FFC
ENDCHAR
STARTCHAR 0046
ENCODING 70
SWIDTH 1020 0
DWIDTH 17 0
BBX 14 14 0 0
BITMAP
7FFC
7FFC
FFFC
FC00
FC00
FC00
FFC0
FFC0
FFC0
FC00
FC00
FC00
FC00
FC00
ENDCHAR
STARTCHAR 0047
ENCODING 71
SWIDTH 1020 0
DWIDTH 17 0
BBX 14 14 0 0
BITMAP
7FFC
7FFC
FFFC
FC00
FC00
FC00
FDFC
FDFC
FDFC
FCFC
FCFC
FFFC
FFFC
7FFC
ENDCHAR
STARTCHAR 0048
ENCODING 72
SWIDTH 1020 0
DWIDTH 17 0
BBX 14 14 0 0
BITMAP
FCFC
FCFC
FCFC
FCFC
FCFC
FCFC
FFFC
FFFC
FFFC
FCFC
FCFC
FCFC
FCFC
FCFC
ENDCHAR
STARTCHAR 0049
ENCODING 73
SWIDTH 480 0
DWIDTH 8 0
BBX 6 14 0 0
BITMAP
FC
FC
FC
FC
FC
FC
FC
FC
FC
FC
FC
FC
FC
FC
ENDCHAR
STARTCHAR 004A
ENCODING 74
SWIDTH 1020 0
DWIDTH 17 0
BBX 14 14 0 0
BITMAP
00FC
00FC
00FC
00FC
00FC
00FC
00FC
00FC
00FC
00FC
00FC
FFFC
FFFC
FFF8
ENDCHAR
STARTCHAR 004B
ENCODING 75
SWIDTH 1020 0
DWIDTH 17 0
BBX 14 14 0 0
BITMAP
FCFC
FCFC
FCFC
FCFC
FCFC
FCFC
FFF8
FFF8
FFF8
FCFC
FCFC
FCFC
FCFC
FCFC
ENDCHAR
STARTCHAR 004C
ENCODING 76
SWIDTH 1020 0
DWIDTH 17 0
BBX 14 14 0 0
BITMAP
FC00
FC00
FC00
FC00
FC00
FC00
FC00
FC00
FC00
FC00
FC00
FFFC
FFFC
FFFC
ENDCHAR
STARTCHAR 004D
ENCODING 77
SWIDTH 1500 0
DWIDTH 25 0
BBX 22 14 0 0
BITMAP
FFFFF8
FFFFFC
FFFFFC
FCFC7C
FCFC7C
FCFC7C
FCFC7C
FCFC7C
FCFC7C
FCFC7C
FCFC7C
FCFC7C
FCFC7C
FCFC7C
ENDCHAR
STARTCHAR 004E
ENCODING 78
SWIDTH 1020 0
DWIDTH 17 0
BBX 14 14 0 0
BITMAP
FFF8
FFFC
FFFC
FCFC
FCFC
FCFC
FCFC
FCFC
FCFC
FCFC
FCFC
FCFC
FCFC
FCFC
ENDCHAR
STARTCHAR 004F
ENCODING 79
SWIDTH 1020 0
DWIDTH 17 0
BBX 14 14 0 0
BITMAP
7FF8
7FFC
FFFC
FCFC
FCFC
FCFC
FCFC
FCFC
FCFC
FCFC
FCFC
FFFC
FFFC
7FF8
ENDCHAR
STARTCHAR 0050
ENCODING 80
SWIDTH 1020 0
DWIDTH 17 0
BBX 14 14 0 0
BITMAP
FFF8
FFFC
FFFC
FCFC
FCFC
FCFC
FFFC
FFF8
FFF8
FC00
FC00
FC00
FC00
FC00
ENDCHAR
STARTCHAR 0051
ENCODING 81
SWIDTH 1020 0
DWIDTH 17 0
BBX 14 14 0 0
BITMAP
7FF8
7FFC
FFFC
FCFC
FCFC
FCFC
FCFC
FCFC
FCFC
FCFC
FCFC
FFFC
FFFC
7FF8
ENDCHAR
STARTCHAR 0052
ENCODING 82
SWIDTH 1020 0
DWIDTH 17 0
BBX 14 14 0 0
BITMAP
FFF8
FFF8
FFFC
FCFC
FCFC
FCFC
FFF8
FFF8
FFF8
FCFC
FCFC
FCFC
FCFC
FCFC
ENDCHAR
STARTCHAR 0053
ENCODING 83
SWIDTH 1020 0
DWIDTH 17 0
BBX 14 14 0 0
BITMAP
7FFC
7FFC
FFFC
FC00
FC00
FFF8
FFF8
7FFC
00FC
00FC
00FC
FFFC
FFFC
FFF8
ENDCHAR
STARTCHAR 0054
ENCODING 84
SWIDTH 1020 0
DWIDTH 17 0
BBX 14 14 0 0
BITMAP
FFFC
FFFC
FFFC
0FC0
0FC0
0FC0
0FC0
0FC0
0FC0
0FC0
0FC0
0FC0
0FC0
0FC0
ENDCHAR
STARTCHAR 0055
ENCODING 85
SWIDTH 1020 0
DWIDTH 17 0
BBX 14 14 0 0
BITMAP
FCFC
FCFC
FCFC
FCFC
FCFC
FCFC
FCFC
FCFC
FCFC
FCFC
FCFC
FFFC
FFFC
7FF8
ENDCHAR
STARTCHAR 0056
ENCODING 86
SWIDTH 1020 0
DWIDTH 17 0
BBX 14 14 0 0
BITMAP
FCFC
FCFC
FCFC
FCFC
FCFC
FCFC
FCFC
FCFC
FCFC
FCFC
FCFC
FFFC
FFFC
FFF8
ENDCHAR
STARTCHAR 0057
ENCODING 87
SWIDTH 1500 0
DWIDTH 25 0
BBX 22 14 0 0
BITMAP
FCFC7C
FCFC7C
FCFC7C
FCFC7C
FCFC7C
FCFC7C
FCFC7C
FCFC7C
FCFC7C
FCFC7C
FCFC7C
FFFFFC
FFFFFC
FFFFF8
ENDCHAR
STARTCHAR 0058
ENCODING 88
SWIDTH 1020 0
DWIDTH 17 0
BBX 14 14 0 0
BITMAP
FCFC
FCFC
FCFC
FCFC
FCFC
FCFC
7FF8
7FF8
7FF8
FCFC
FCFC
FCFC
FCFC
FCFC
ENDCHAR
STARTCHAR 0059
ENCODING 89
SWIDTH 1020 0
DWIDTH 17 0
BBX 14 14 0 0
BITMAP
FCFC
FCFC
FCFC
FCFC
FCFC
FCFC
FFFC
7FF8
0FC0
0FC0
0FC0
0FC0
0FC0
0FC0
ENDCHAR
STARTCHAR 005A
ENCODING 90
SWIDTH 1020 0
DWIDTH 17 0
BBX 14 14 0 0
BITMAP
FFFC
FFFC
FFFC
00FC
00FC
00FC
7FFC
FFF8
FFF8
FC00
FC00
FFFC
FFFC
FFFC
ENDCHAR
STARTCHAR 005B
ENCODING 91
SWIDTH 480 0
DWIDTH 8 0
BBX 8 14 0 0
BITMAP
FF
FF
FF
FC
FC
FC
FC
FC
FC
FC
FC
FF
FF
FF
ENDCHAR
STARTCHAR 005D
ENCODING 93
SWIDTH 480 0
DWIDTH 8 0
BBX 8 14 0 0
BITMAP
FF
FF
FF
1F
1F
1F
1F
1F
1F
1F
1F
FF
FF
FF
ENDCHAR
STARTCHAR 0061
ENCODING 97
SWIDTH 1020 0
DWIDTH 17 0
BBX 14 14 0 0
BITMAP
7FF8
FFFC
FFFC
FCFC
FCFC
FCFC
FFFC
FFFC
FCFC
FCFC
FCFC
FCFC
FCFC
FCFC
ENDCHAR
STARTCHAR 0062
ENCODING 98
SWIDTH 1020 0
DWIDTH 17 0
BBX 14 14 0 0
BITMAP
FFF8
FFFC
FFFC
FCFC
FCFC
FCFC
FFF8
FFF8
FCFC
FCFC
FCFC
FFFC
FFFC
FFF8
ENDCHAR
STARTCHAR 0063
ENCODING 99
SWIDTH 1020 0
DWIDTH 17 0
BBX 14 14 0 0
BITMAP
7FFC
FFFC
FFFC
FC00
FC00
FC00
FC00
FC00
FC00
FC00
FC00
FFFC
FFFC
7FFC
ENDCHAR
STARTCHAR 0064
ENCODING 100
SWIDTH 1020 0
DWIDTH 17 0
BBX 14 14 0 0
BITMAP
FFF8
FFFC
FFFC
FCFC
FCFC
FCFC
FCFC
FCFC
FCFC
FCFC
FCFC
FFFC
FFFC
FFF8
ENDCHAR
STARTCHAR 0065
ENCODING 101
SWIDTH 1020 0
DWIDTH 17 0
BBX 14 14 0 0
BITMAP
7FFC
FFFC
FFFC
FC00
FC00
FC00
FFC0
FFC0
FC00
FC00
FC00
FFFC
FFFC
7FFC
ENDCHAR
STARTCHAR 0066
ENCODING 102
SWIDTH 1020 0
DWIDTH 17 0
BBX 14 14 0 0
BITMAP
7FFC
FFFC
FFFC
FC00
FC00
FC00
FFC0
FFC0
FC00
FC00
FC00
FC00
FC00
FC00
ENDCHAR
STARTCHAR 0067
ENCODING 103
SWIDTH 1020 0
DWIDTH 17 0
BBX 14 14 0 0
BITMAP
7FFC
FFFC
FFFC
FC00
FC00
FC00
FDFC
FDFC
FCFC
FCFC
FCFC
FFFC
FFFC
7FFC
ENDCHAR
STARTCHAR 0068
ENCODING 104
SWIDTH 1020 0
DWIDTH 17 0
BBX 14 14 0 0
BITMAP
FCFC
FCFC
FCFC
FCFC
FCFC
FCFC
FFFC
FFFC
FCFC
FCFC
FCFC
FCFC
FCFC
FCFC
ENDCHAR
STARTCHAR 0069
ENCODING 105
SWIDTH 480 0
DWIDTH 8 0
BBX 6 14 0 0
BITMAP
FC
FC
FC
FC
FC
FC
FC
FC
FC
FC
FC
FC
FC
FC
ENDCHAR
STARTCHAR 006A
ENCODING 106
SWIDTH 1020 0
DWIDTH 17 0
BBX 14 14 0 0
BITMAP
00FC
00FC
00FC
00FC
00FC
00FC
00FC
00FC
00FC
00FC
00FC
FFFC
FFFC
FFF8
ENDCHAR
STARTCHAR 006B
ENCODING 107
SWIDTH 1020 0
DWIDTH 17 0
BBX 14 14 0 0
BITMAP
FCFC
FCFC
FCFC
FCFC
FCFC
FCFC
FFF8
FFF8
FCFC
FCFC
FCFC
FCFC
FCFC
FCFC
ENDCHAR
STARTCHAR 006C
ENCODING 108
SWIDTH 1020 0
DWIDTH 17 0
BBX 14 14 0 0
BITMAP
FC00
FC00
FC00
FC00
FC00
FC00
FC00
FC00
FC00
FC00
FC00
FFFC
FFFC
FFFC
ENDCHAR
STARTCHAR 006D
ENCODING 109
SWIDTH 1500 0
DWIDTH 25 0
BBX 22 14 0 0
BITMAP
FFFFF8
FFFFFC
FFFFFC
FCFC7C
FCFC7C
FCFC7C
FCFC7C
FCFC7C
FCFC7C
FCFC7C
FCFC7C
FCFC7C
FCFC7C
FCFC7C
ENDCHAR
STARTCHAR 006E
ENCODING 110
SWIDTH 1020 0
DWIDTH 17 0
BBX 14 14 0 0
BITMAP
FFF8
FFFC
FFFC
FCFC
FCFC
FCFC
FCFC
FCFC
FCFC
FCFC
FCFC
FCFC
FCFC
FCFC
ENDCHAR
STARTCHAR 006F
ENCODING 111
SWIDTH 1020 0
DWIDTH 17 0
BBX 14 14 0 0
BITMAP
7FF8
FFFC
FFFC
FCFC
FCFC
FCFC
FCFC
FCFC
FCFC
FCFC
FCFC
FFFC
FFFC
7FF8
ENDCHAR
STARTCHAR 0070
ENCODING 112
SWIDTH 1020 0
DWIDTH 17 0
BBX 14 14 0 0
BITMAP
FFF8
FFFC
FFFC
FCFC
FCFC
FCFC
FFFC
FFF8
FC00
FC00
FC00
FC00
FC00
FC00
ENDCHAR
STARTCHAR 0071
ENCODING 113
SWIDTH 1020 0
DWIDTH 17 0
BBX 14 14 0 0
BITMAP
7FF8
FFFC
FFFC
FCFC
FCFC
FCFC
FCFC
FCFC
FCFC
FCFC
FCFC
FFFC
FFFC
7FF8
ENDCHAR
STARTCHAR 0072
ENCODING 114
SWIDTH 1020 0
DWIDTH 17 0
BBX 14 14 0 0
BITMAP
FFF8
FFFC
FFFC
FCFC
FCFC
FCFC
FFF8
FFF8
FCFC
FCFC
FCFC
FCFC
FCFC
FCFC
ENDCHAR
STARTCHAR 0073
ENCODING 115
SWIDTH 1020 0
DWIDTH 17 0
BBX 14 14 0 0
BITMAP
7FFC
FFFC
FFFC
FC00
FC00
FC00
FFF8
7FFC
00FC
00FC
00FC
FFFC
FFFC
FFF8
ENDCHAR
STARTCHAR 0074
ENCODING 116
SWIDTH 1020 0
DWIDTH 17 0
BBX 14 14 0 0
BITMAP
FFFC
FFFC
FFFC
0FC0
0FC0
0FC0
0FC0
0FC0
0FC0
0FC0
0FC0
0FC0
0FC0
0FC0
ENDCHAR
STARTCHAR 0075
ENCODING 117
SWIDTH 1020 0
DWIDTH 17 0
BBX 14 14 0 0
BITMAP
FCFC
FCFC
FCFC
FCFC
FCFC
FCFC
FCFC
FCFC
FCFC
FCFC
FCFC
FFFC
FFFC
7FF8
ENDCHAR
STARTCHAR 0076
ENCODING 118
SWIDTH 1020 0
DWIDTH 17 0
BBX 14 14 0 0
BITMAP
FCFC
FCFC
FCFC
FCFC
FCFC
FCFC
FCFC
FCFC
FCFC
FCFC
FCFC
FFFC
FFFC
FFF8
ENDCHAR
STARTCHAR 0077
ENCODING 119
SWIDTH 1500 0
DWIDTH 25 0
BBX 22 14 0 0
BITMAP
FCFC7C
FCFC7C
FCFC7C
FCFC7C
FCFC7C
FCFC7C
FCFC7C
FCFC7C
FCFC7C
FCFC7C
FCFC7C
FFFFFC
FFFFFC
FFFFF8
ENDCHAR
STARTCHAR 0078
ENCODING 120
SWIDTH 1020 0
DWIDTH 17 0
BBX 14 14 0 0
BITMAP
FCFC
FCFC
FCFC
FCFC
FCFC
FCFC
7FF8
7FF8
FCFC
FCFC
FCFC
FCFC
FCFC
FCFC
ENDCHAR
STARTCHAR 0079
ENCODING 121
SWIDTH 1020 0
DWIDTH 17 0
BBX 14 14 0 0
BITMAP
FCFC
FCFC
FCFC
FCFC
FCFC
FCFC
FFFC
7FF8
0FC0
0FC0
0FC0
0FC0
0FC0
0FC0
ENDCHAR
STARTCHAR 007A
ENCODING 122
SWIDTH 1020 0
DWIDTH 17 0
BBX 14 14 0 0
BITMAP
FFFC
FFFC
FFFC
00FC
00FC
00FC
7FFC
FFF8
FC00
FC00
FC00
FFFC
FFFC
FFFC
ENDCHAR
ENDFONT
